<svg width="27" height="27" viewBox="0 0 27 27" fill="none" xmlns="http://www.w3.org/2000/svg">
<g clip-path="url(#clip0_4_9)">
<path d="M14.3438 9.28125C14.3438 9.05747 14.2549 8.84286 14.0966 8.68463C13.9384 8.5264 13.7238 8.4375 13.5 8.4375C13.2762 8.4375 13.0616 8.5264 12.9034 8.68463C12.7452 8.84286 12.6563 9.05747 12.6563 9.28125V14.9546L10.2448 18.9709C10.1296 19.1629 10.0953 19.3928 10.1496 19.61C10.2039 19.8273 10.3422 20.0141 10.5342 20.1293C10.7262 20.2446 10.9561 20.2788 11.1734 20.2246C11.3907 20.1703 11.5775 20.0319 11.6927 19.8399L14.2239 15.6212C14.3024 15.4901 14.3438 15.3402 14.3438 15.1875V9.28125Z" fill="#D07B5B"/>
<path d="M10.9688 0C10.745 0 10.5304 0.0888948 10.3721 0.247129C10.2139 0.405362 10.125 0.619974 10.125 0.84375C10.125 1.06753 10.2139 1.28214 10.3721 1.44037C10.5304 1.59861 10.745 1.6875 10.9688 1.6875H11.8125V3.49312C9.51459 3.82511 7.36543 4.82683 5.63351 6.37313C3.90159 7.91944 2.66368 9.94178 2.07443 12.1875C1.48518 14.4333 1.5707 16.8029 2.32032 19.0003C3.06994 21.1977 4.45042 23.1256 6.28931 24.543L5.27344 25.5589C5.115 25.7171 5.02591 25.9318 5.02575 26.1557C5.02559 26.3796 5.11438 26.5943 5.27259 26.7528C5.4308 26.9112 5.64547 27.0003 5.86937 27.0005C6.09327 27.0006 6.30807 26.9118 6.4665 26.7536L7.72538 25.4947C9.48884 26.4846 11.4777 27.003 13.5 27C15.5223 27.003 17.5112 26.4846 19.2746 25.4947L20.5335 26.7536C20.6919 26.9118 20.9067 27.0006 21.1306 27.0005C21.3545 27.0003 21.5692 26.9112 21.7274 26.7528C21.8856 26.5943 21.9744 26.3796 21.9743 26.1557C21.9741 25.9318 21.885 25.7171 21.7266 25.5589L20.7124 24.543C22.5513 23.1255 23.9318 21.1975 24.6813 18.9999C25.4308 16.8024 25.5162 14.4327 24.9268 12.1869C24.3373 9.94109 23.0992 7.91876 21.367 6.37256C19.6349 4.82637 17.4855 3.82485 15.1875 3.49312V1.6875H16.0312C16.255 1.6875 16.4696 1.59861 16.6279 1.44037C16.7861 1.28214 16.875 1.06753 16.875 0.84375C16.875 0.619974 16.7861 0.405362 16.6279 0.247129C16.4696 0.0888948 16.255 0 16.0312 0L10.9688 0ZM12.7204 5.09287C13.2394 5.05341 13.7606 5.05341 14.2796 5.09287C16.8896 5.29444 19.3201 6.49906 21.0611 8.45396C22.8021 10.4089 23.7183 12.9621 23.6175 15.5779C23.5166 18.1937 22.4065 20.6689 20.5202 22.4839C18.6338 24.2989 16.1178 25.3128 13.5 25.3128C10.8822 25.3128 8.36619 24.2989 6.47982 22.4839C4.59345 20.6689 3.48338 18.1937 3.38252 15.5779C3.28166 12.9621 4.19785 10.4089 5.93886 8.45396C7.67988 6.49906 10.1104 5.29444 12.7204 5.09287V5.09287ZM4.27422e-09 5.90625C4.27422e-09 7.17694 0.561938 8.31769 1.45125 9.09056C2.75357 6.52548 4.83798 4.44107 7.40306 3.13875C6.83923 2.48996 6.09067 2.02887 5.25759 1.81721C4.4245 1.60555 3.54663 1.65342 2.7415 1.95441C1.93636 2.25539 1.24237 2.79513 0.752429 3.50138C0.262484 4.20764 -3.86781e-05 5.04669 4.27422e-09 5.90625H4.27422e-09ZM22.7812 1.6875C21.5106 1.6875 20.3698 2.24944 19.5969 3.13875C22.162 4.44107 24.2464 6.52548 25.5488 9.09056C26.1975 8.52673 26.6586 7.77817 26.8703 6.94509C27.0819 6.112 27.0341 5.23413 26.7331 4.429C26.4321 3.62386 25.8924 2.92987 25.1861 2.43993C24.4799 1.94998 23.6408 1.68746 22.7812 1.6875V1.6875Z" fill="#D07B5B"/>
</g>
<defs>
<clipPath id="clip0_4_9">
<rect width="27" height="27" fill="white"/>
</clipPath>
</defs>
</svg>
