<svg width="31" height="31" viewBox="0 0 31 31" fill="none" xmlns="http://www.w3.org/2000/svg">
<path d="M0 1.03333C0 0.759276 0.108871 0.496444 0.302662 0.302656C0.496454 0.108869 0.759292 0 1.03335 0H4.13342C4.36392 6.3677e-05 4.58778 0.0771914 4.76941 0.219118C4.95103 0.361044 5.07999 0.55962 5.13577 0.783267L5.97279 4.13333H29.9673C30.1201 4.13343 30.271 4.16741 30.4091 4.23285C30.5472 4.29828 30.6691 4.39353 30.7659 4.51174C30.8628 4.62994 30.9322 4.76816 30.9692 4.91644C31.0063 5.06471 31.0099 5.21934 30.98 5.3692L28.9132 15.7025C28.868 15.9279 28.749 16.1317 28.5749 16.2818C28.4009 16.4319 28.1818 16.5197 27.9522 16.5313L8.53137 17.5067L9.12452 20.6667H26.8672C27.1413 20.6667 27.4041 20.7755 27.5979 20.9693C27.7917 21.1631 27.9006 21.4259 27.9006 21.7C27.9006 21.9741 27.7917 22.2369 27.5979 22.4307C27.4041 22.6245 27.1413 22.7333 26.8672 22.7333H8.26683C8.02592 22.7331 7.79266 22.6487 7.60737 22.4948C7.42208 22.3408 7.29641 22.1269 7.25208 21.8901L4.15408 5.3878L3.3274 2.06667H1.03335C0.759292 2.06667 0.496454 1.9578 0.302662 1.76401C0.108871 1.57022 0 1.30739 0 1.03333ZM6.41093 6.2L8.14696 15.4566L27.0449 14.508L28.7066 6.2H6.41093ZM10.3335 22.7333C9.23729 22.7333 8.18594 23.1688 7.41077 23.944C6.63561 24.7191 6.20013 25.7704 6.20012 26.8667C6.20013 27.9629 6.63561 29.0142 7.41077 29.7894C8.18594 30.5645 9.23729 31 10.3335 31C11.4298 31 12.4811 30.5645 13.2563 29.7894C14.0315 29.0142 14.467 27.9629 14.467 26.8667C14.467 25.7704 14.0315 24.7191 13.2563 23.944C12.4811 23.1688 11.4298 22.7333 10.3335 22.7333ZM24.8005 22.7333C23.7043 22.7333 22.6529 23.1688 21.8777 23.944C21.1026 24.7191 20.6671 25.7704 20.6671 26.8667C20.6671 27.9629 21.1026 29.0142 21.8777 29.7894C22.6529 30.5645 23.7043 31 24.8005 31C25.8967 31 26.9481 30.5645 27.7233 29.7894C28.4984 29.0142 28.9339 27.9629 28.9339 26.8667C28.9339 25.7704 28.4984 24.7191 27.7233 23.944C26.9481 23.1688 25.8967 22.7333 24.8005 22.7333ZM10.3335 24.8C10.8817 24.8 11.4073 25.0177 11.7949 25.4053C12.1825 25.7929 12.4002 26.3186 12.4002 26.8667C12.4002 27.4148 12.1825 27.9404 11.7949 28.328C11.4073 28.7156 10.8817 28.9333 10.3335 28.9333C9.78542 28.9333 9.25974 28.7156 8.87216 28.328C8.48458 27.9404 8.26683 27.4148 8.26683 26.8667C8.26683 26.3186 8.48458 25.7929 8.87216 25.4053C9.25974 25.0177 9.78542 24.8 10.3335 24.8ZM24.8005 24.8C25.3486 24.8 25.8743 25.0177 26.2619 25.4053C26.6495 25.7929 26.8672 26.3186 26.8672 26.8667C26.8672 27.4148 26.6495 27.9404 26.2619 28.328C25.8743 28.7156 25.3486 28.9333 24.8005 28.9333C24.2524 28.9333 23.7267 28.7156 23.3391 28.328C22.9515 27.9404 22.7338 27.4148 22.7338 26.8667C22.7338 26.3186 22.9515 25.7929 23.3391 25.4053C23.7267 25.0177 24.2524 24.8 24.8005 24.8Z" fill="#D07B5B"/>
</svg>
