<svg width="31" height="31" viewBox="0 0 31 31" fill="none" xmlns="http://www.w3.org/2000/svg">
<g clip-path="url(#clip0_82_2)">
<path d="M21.3125 1.9375C20.2848 1.9375 19.2992 2.34576 18.5725 3.07246C17.8458 3.79916 17.4375 4.78479 17.4375 5.8125V13.5625C18.4652 13.5625 19.4508 13.9708 20.1775 14.6975C20.9042 15.4242 21.3125 16.4098 21.3125 17.4375V27.125C21.3125 28.1527 20.9042 29.1383 20.1775 29.865C19.4508 30.5917 18.4652 31 17.4375 31H5.8125C4.78479 31 3.79916 30.5917 3.07246 29.865C2.34576 29.1383 1.9375 28.1527 1.9375 27.125V17.4375C1.9375 16.4098 2.34576 15.4242 3.07246 14.6975C3.79916 13.9708 4.78479 13.5625 5.8125 13.5625H15.5V5.8125C15.5 4.27093 16.1124 2.7925 17.2024 1.70244C18.2925 0.612387 19.7709 0 21.3125 0C22.8541 0 24.3325 0.612387 25.4226 1.70244C26.5126 2.7925 27.125 4.27093 27.125 5.8125V13.5625C27.125 13.8194 27.0229 14.0658 26.8413 14.2475C26.6596 14.4292 26.4132 14.5312 26.1562 14.5312C25.8993 14.5312 25.6529 14.4292 25.4712 14.2475C25.2896 14.0658 25.1875 13.8194 25.1875 13.5625V5.8125C25.1875 4.78479 24.7792 3.79916 24.0525 3.07246C23.3258 2.34576 22.3402 1.9375 21.3125 1.9375ZM5.8125 15.5C5.29864 15.5 4.80583 15.7041 4.44248 16.0675C4.07913 16.4308 3.875 16.9236 3.875 17.4375V27.125C3.875 27.6389 4.07913 28.1317 4.44248 28.495C4.80583 28.8584 5.29864 29.0625 5.8125 29.0625H17.4375C17.9514 29.0625 18.4442 28.8584 18.8075 28.495C19.1709 28.1317 19.375 27.6389 19.375 27.125V17.4375C19.375 16.9236 19.1709 16.4308 18.8075 16.0675C18.4442 15.7041 17.9514 15.5 17.4375 15.5H5.8125Z" fill="#B6B0B0"/>
</g>
<defs>
<clipPath id="clip0_82_2">
<rect width="31" height="31" fill="white"/>
</clipPath>
</defs>
</svg>
