<svg width="29" height="29" viewBox="0 0 29 29" fill="none" xmlns="http://www.w3.org/2000/svg">
<g clip-path="url(#clip0_4_156)">
<path d="M29 14.5888C29 6.53045 22.5076 -0.00180054 14.5 -0.00180054C6.48877 1.1963e-05 -0.00360107 6.53045 -0.00360107 14.5906C-0.00360107 21.8715 5.29977 27.9071 12.2308 29.0018V18.8065H8.5514V14.5906H12.2344V11.3734C12.2344 7.71764 14.4003 5.69851 17.7118 5.69851C19.2995 5.69851 20.958 5.98307 20.958 5.98307V9.57183H19.1291C17.3293 9.57183 16.7675 10.6974 16.7675 11.8519V14.5888H20.7876L20.146 18.8047H16.7656V29C23.6966 27.9053 29 21.8696 29 14.5888Z" fill="black"/>
</g>
<defs>
<clipPath id="clip0_4_156">
<rect width="29" height="29" fill="white"/>
</clipPath>
</defs>
</svg>
