<svg width="47" height="47" viewBox="0 0 47 47" fill="none" xmlns="http://www.w3.org/2000/svg">
<path d="M23.6469 28.2C24.6339 28.2 25.1274 27.495 25.2742 26.3582C25.3917 24.7896 25.8559 23.9641 27.7623 22.6569C29.7392 21.2616 30.8437 19.4551 30.8437 16.8231C30.8437 12.9309 28.1412 10.2812 24.1991 10.2812C21.2029 10.2812 18.9351 11.7265 18.0304 14.0706C17.7562 14.7108 17.6181 15.4011 17.625 16.0975C17.625 17.2519 18.2213 17.9775 19.2259 17.9775C20.0249 17.9775 20.5625 17.5457 20.8827 16.4794C21.3468 14.7404 22.4249 13.7916 24.0376 13.7916C25.8294 13.7916 27.0632 15.1017 27.0632 16.9758C27.0632 18.6296 26.4522 19.5755 24.6486 20.868C22.8302 22.1399 21.9284 23.5529 21.9284 25.6855V26.0116C21.9284 27.2688 22.5394 28.2 23.6469 28.2Z" fill="#FDB0AE"/>
<path d="M30.177 7.38194L27.4715 4.60894L29.5718 2.55856L31.399 4.42975L34.0133 4.39744C35.145 4.38404 36.2679 4.59707 37.3161 5.02397C38.3642 5.45088 39.3164 6.08306 40.1167 6.88333C40.917 7.68359 41.5491 8.6358 41.976 9.68394C42.403 10.7321 42.616 11.855 42.6026 12.9867L42.5732 15.6011L44.4415 17.4282C45.2506 18.2189 45.8936 19.1633 46.3325 20.206C46.7715 21.2487 46.9977 22.3687 46.9977 23.5C46.9977 24.6313 46.7715 25.7513 46.3325 26.794C45.8936 27.8367 45.2506 28.7811 44.4415 29.5718L42.5703 31.3989L42.6026 34.0133C42.616 35.145 42.403 36.2679 41.976 37.3161C41.5491 38.3642 40.917 39.3164 40.1167 40.1167C39.3164 40.9169 38.3642 41.5491 37.3161 41.976C36.2679 42.4029 35.145 42.616 34.0133 42.6026L31.399 42.5732L29.5718 44.4414C28.7811 45.2506 27.8367 45.8936 26.794 46.3325C25.7513 46.7715 24.6314 46.9976 23.5 46.9976C22.3687 46.9976 21.2487 46.7715 20.206 46.3325C19.1633 45.8936 18.2189 45.2506 17.4282 44.4414L15.6011 42.5702L12.9867 42.6026C11.855 42.616 10.7321 42.4029 9.68396 41.976C8.63581 41.5491 7.68361 40.9169 6.88334 40.1167C6.08307 39.3164 5.4509 38.3642 5.02399 37.3161C4.59708 36.2679 4.38406 35.145 4.39745 34.0133L4.42683 31.3989L2.55858 29.5718C1.74942 28.7811 1.10646 27.8367 0.667484 26.794C0.228511 25.7513 0.00238037 24.6313 0.00238037 23.5C0.00238037 22.3687 0.228511 21.2487 0.667484 20.206C1.10646 19.1633 1.74942 18.2189 2.55858 17.4282L4.42977 15.6011L4.39745 12.9867C4.38406 11.855 4.59708 10.7321 5.02399 9.68394C5.4509 8.6358 6.08307 7.68359 6.88334 6.88333C7.68361 6.08306 8.63581 5.45088 9.68396 5.02397C10.7321 4.59707 11.855 4.38404 12.9867 4.39744L15.6011 4.42681L17.4282 2.55856C18.2189 1.7494 19.1633 1.10644 20.206 0.667469C21.2487 0.228496 22.3687 0.00236511 23.5 0.00236511C24.6314 0.00236511 25.7513 0.228496 26.794 0.667469C27.8367 1.10644 28.7811 1.7494 29.5718 2.55856L27.4715 4.60894C26.9544 4.07956 26.3367 3.65891 25.6546 3.37171C24.9726 3.08451 24.24 2.93656 23.5 2.93656C22.76 2.93656 22.0274 3.08451 21.3454 3.37171C20.6634 3.65891 20.0456 4.07956 19.5285 4.60894L16.826 7.38194L12.9485 7.33494C12.2088 7.32667 11.4749 7.46632 10.7899 7.74568C10.1049 8.02505 9.48262 8.43849 8.95965 8.96173C8.43669 9.48496 8.02357 10.1074 7.74457 10.7926C7.46556 11.4777 7.3263 12.2117 7.33495 12.9514L7.38195 16.8231L4.60895 19.5285C4.07958 20.0456 3.65892 20.6633 3.37172 21.3454C3.08453 22.0274 2.93658 22.76 2.93658 23.5C2.93658 24.24 3.08453 24.9726 3.37172 25.6546C3.65892 26.3367 4.07958 26.9544 4.60895 27.4715L7.38195 30.174L7.33495 34.0515C7.32668 34.7912 7.46633 35.5251 7.7457 36.2101C8.02506 36.8951 8.4385 37.5174 8.96174 38.0404C9.48498 38.5633 10.1075 38.9764 10.7926 39.2554C11.4777 39.5345 12.2117 39.6737 12.9515 39.6651L16.8231 39.6181L19.5285 42.3911C20.0456 42.9204 20.6634 43.3411 21.3454 43.6283C22.0274 43.9155 22.76 44.0634 23.5 44.0634C24.24 44.0634 24.9726 43.9155 25.6546 43.6283C26.3367 43.3411 26.9544 42.9204 27.4715 42.3911L30.174 39.6181L34.0515 39.6651C34.7912 39.6733 35.5252 39.5337 36.2102 39.2543C36.8952 38.975 37.5174 38.5615 38.0404 38.0383C38.5633 37.515 38.9765 36.8926 39.2555 36.2074C39.5345 35.5223 39.6737 34.7883 39.6651 34.0486L39.6181 30.1769L42.3911 27.4715C42.9205 26.9544 43.3411 26.3367 43.6283 25.6546C43.9155 24.9726 44.0635 24.24 44.0635 23.5C44.0635 22.76 43.9155 22.0274 43.6283 21.3454C43.3411 20.6633 42.9205 20.0456 42.3911 19.5285L39.6181 16.826L39.6651 12.9485C39.6733 12.2088 39.5337 11.4749 39.2543 10.7899C38.975 10.1049 38.5615 9.4826 38.0383 8.95964C37.5151 8.43668 36.8926 8.02356 36.2074 7.74455C35.5223 7.46555 34.7883 7.32628 34.0486 7.33494L30.177 7.38194V7.38194Z" fill="#FDB0AE"/>
<path d="M20.5654 32.3125C20.5654 31.5334 20.8749 30.7863 21.4258 30.2354C21.9767 29.6845 22.7239 29.375 23.5029 29.375C24.282 29.375 25.0292 29.6845 25.5801 30.2354C26.1309 30.7863 26.4404 31.5334 26.4404 32.3125C26.4404 33.0916 26.1309 33.8387 25.5801 34.3896C25.0292 34.9405 24.282 35.25 23.5029 35.25C22.7239 35.25 21.9767 34.9405 21.4258 34.3896C20.8749 33.8387 20.5654 33.0916 20.5654 32.3125V32.3125Z" fill="#FDB0AE"/>
</svg>
