<svg width="32" height="32" viewBox="0 0 32 32" fill="none" xmlns="http://www.w3.org/2000/svg">
<path fill-rule="evenodd" clip-rule="evenodd" d="M4 27V14H6V27C6 27.2652 6.10536 27.5196 6.29289 27.7071C6.48043 27.8946 6.73478 28 7 28H25C25.2652 28 25.5196 27.8946 25.7071 27.7071C25.8946 27.5196 26 27.2652 26 27V14H28V27C28 27.7956 27.6839 28.5587 27.1213 29.1213C26.5587 29.6839 25.7956 30 25 30H7C6.20435 30 5.44129 29.6839 4.87868 29.1213C4.31607 28.5587 4 27.7956 4 27ZM26 5V12L22 8V5C22 4.73478 22.1054 4.48043 22.2929 4.29289C22.4804 4.10536 22.7348 4 23 4H25C25.2652 4 25.5196 4.10536 25.7071 4.29289C25.8946 4.48043 26 4.73478 26 5Z" fill="#D07B5B"/>
<path fill-rule="evenodd" clip-rule="evenodd" d="M14.586 3C14.9611 2.62506 15.4697 2.41443 16 2.41443C16.5303 2.41443 17.039 2.62506 17.414 3L30.708 16.292C30.8958 16.4798 31.0013 16.7344 31.0013 17C31.0013 17.2656 30.8958 17.5202 30.708 17.708C30.5202 17.8958 30.2656 18.0013 30 18.0013C29.7345 18.0013 29.4798 17.8958 29.292 17.708L16 4.414L2.70801 17.708C2.52024 17.8958 2.26556 18.0013 2.00001 18.0013C1.73446 18.0013 1.47979 17.8958 1.29201 17.708C1.10424 17.5202 0.998749 17.2656 0.998749 17C0.998749 16.7344 1.10424 16.4798 1.29201 16.292L14.586 3Z" fill="#D07B5B"/>
</svg>
