<svg width="23" height="21" viewBox="0 0 23 21" fill="none" xmlns="http://www.w3.org/2000/svg">
<path fill-rule="evenodd" clip-rule="evenodd" d="M3.59375 15.75C3.59375 15.576 3.66948 15.409 3.80427 15.286C3.93906 15.1629 4.12188 15.0938 4.3125 15.0938H18.6875C18.8781 15.0938 19.0609 15.1629 19.1957 15.286C19.3305 15.409 19.4062 15.576 19.4062 15.75C19.4062 15.924 19.3305 16.091 19.1957 16.214C19.0609 16.3371 18.8781 16.4062 18.6875 16.4062H4.3125C4.12188 16.4062 3.93906 16.3371 3.80427 16.214C3.66948 16.091 3.59375 15.924 3.59375 15.75ZM3.59375 10.5C3.59375 10.326 3.66948 10.159 3.80427 10.036C3.93906 9.91289 4.12188 9.84375 4.3125 9.84375H18.6875C18.8781 9.84375 19.0609 9.91289 19.1957 10.036C19.3305 10.159 19.4062 10.326 19.4062 10.5C19.4062 10.674 19.3305 10.841 19.1957 10.964C19.0609 11.0871 18.8781 11.1562 18.6875 11.1562H4.3125C4.12188 11.1562 3.93906 11.0871 3.80427 10.964C3.66948 10.841 3.59375 10.674 3.59375 10.5ZM3.59375 5.25C3.59375 5.07595 3.66948 4.90903 3.80427 4.78596C3.93906 4.66289 4.12188 4.59375 4.3125 4.59375H18.6875C18.8781 4.59375 19.0609 4.66289 19.1957 4.78596C19.3305 4.90903 19.4062 5.07595 19.4062 5.25C19.4062 5.42405 19.3305 5.59097 19.1957 5.71404C19.0609 5.83711 18.8781 5.90625 18.6875 5.90625H4.3125C4.12188 5.90625 3.93906 5.83711 3.80427 5.71404C3.66948 5.59097 3.59375 5.42405 3.59375 5.25Z" fill="black"/>
</svg>
