<svg width="18" height="18" viewBox="0 0 18 18" fill="none" xmlns="http://www.w3.org/2000/svg">
<g clip-path="url(#clip0_104_5)">
<path fill-rule="evenodd" clip-rule="evenodd" d="M11.25 14.0625C11.25 14.2117 11.1907 14.3548 11.0852 14.4602C10.9798 14.5657 10.8367 14.625 10.6875 14.625H1.6875C1.53832 14.625 1.39524 14.5657 1.28975 14.4602C1.18426 14.3548 1.125 14.2117 1.125 14.0625V3.9375C1.125 3.78832 1.18426 3.64524 1.28975 3.53975C1.39524 3.43426 1.53832 3.375 1.6875 3.375H10.6875C10.8367 3.375 10.9798 3.43426 11.0852 3.53975C11.1907 3.64524 11.25 3.78832 11.25 3.9375V6.1875C11.25 6.33668 11.3093 6.47976 11.4148 6.58525C11.5202 6.69074 11.6633 6.75 11.8125 6.75C11.9617 6.75 12.1048 6.69074 12.2102 6.58525C12.3157 6.47976 12.375 6.33668 12.375 6.1875V3.9375C12.375 3.48995 12.1972 3.06072 11.8807 2.74426C11.5643 2.42779 11.1351 2.25 10.6875 2.25H1.6875C1.23995 2.25 0.810725 2.42779 0.494257 2.74426C0.17779 3.06072 0 3.48995 0 3.9375L0 14.0625C0 14.5101 0.17779 14.9393 0.494257 15.2557C0.810725 15.5722 1.23995 15.75 1.6875 15.75H10.6875C11.1351 15.75 11.5643 15.5722 11.8807 15.2557C12.1972 14.9393 12.375 14.5101 12.375 14.0625V11.8125C12.375 11.6633 12.3157 11.5202 12.2102 11.4148C12.1048 11.3093 11.9617 11.25 11.8125 11.25C11.6633 11.25 11.5202 11.3093 11.4148 11.4148C11.3093 11.5202 11.25 11.6633 11.25 11.8125V14.0625Z" fill="black"/>
<path fill-rule="evenodd" clip-rule="evenodd" d="M17.8358 9.39826C17.8881 9.34601 17.9297 9.28393 17.9581 9.2156C17.9864 9.14726 18.001 9.074 18.001 9.00001C18.001 8.92602 17.9864 8.85276 17.9581 8.78442C17.9297 8.71608 17.8881 8.65401 17.8358 8.60176L14.4608 5.22676C14.3551 5.12114 14.2119 5.0618 14.0625 5.0618C13.9131 5.0618 13.7699 5.12114 13.6643 5.22676C13.5586 5.33238 13.4993 5.47564 13.4993 5.62501C13.4993 5.77438 13.5586 5.91764 13.6643 6.02326L16.0796 8.43751H6.1875C6.03832 8.43751 5.89524 8.49677 5.78975 8.60226C5.68426 8.70775 5.625 8.85082 5.625 9.00001C5.625 9.14919 5.68426 9.29227 5.78975 9.39776C5.89524 9.50325 6.03832 9.56251 6.1875 9.56251H16.0796L13.6643 11.9768C13.5586 12.0824 13.4993 12.2256 13.4993 12.375C13.4993 12.5244 13.5586 12.6676 13.6643 12.7733C13.7699 12.8789 13.9131 12.9382 14.0625 12.9382C14.2119 12.9382 14.3551 12.8789 14.4608 12.7733L17.8358 9.39826V9.39826Z" fill="black"/>
</g>
<defs>
<clipPath id="clip0_104_5">
<rect width="18" height="18" fill="white"/>
</clipPath>
</defs>
</svg>
