<svg width="31" height="33" viewBox="0 0 31 33" fill="none" xmlns="http://www.w3.org/2000/svg">
<path d="M12.192 2.0625C12.6035 2.0625 12.9981 2.22547 13.2891 2.51557C13.58 2.80566 13.7435 3.19912 13.7435 3.60938V16.5C13.7435 16.7735 13.8525 17.0358 14.0465 17.2292C14.2404 17.4226 14.5035 17.5312 14.7778 17.5312C15.0521 17.5312 15.3152 17.4226 15.5092 17.2292C15.7032 17.0358 15.8122 16.7735 15.8122 16.5V11.2757L15.9901 11.2674C16.6458 11.2427 17.3078 11.2509 17.6781 11.3231C17.9553 11.3788 18.2863 11.5211 18.6048 11.6985C18.7641 11.7851 18.9151 12.0017 18.9151 12.3461V16.5C18.9151 16.7735 19.0241 17.0358 19.2181 17.2292C19.412 17.4226 19.6751 17.5312 19.9494 17.5312C20.2238 17.5312 20.4868 17.4226 20.6808 17.2292C20.8748 17.0358 20.9838 16.7735 20.9838 16.5V13.2722L21.203 13.2516C21.8567 13.2021 22.4111 13.2309 22.6676 13.3341C22.9117 13.4289 23.2882 13.761 23.673 14.2209C23.8406 14.4189 23.9833 14.6128 24.0867 14.7551V17.5312C24.0867 17.8048 24.1957 18.0671 24.3897 18.2605C24.5837 18.4539 24.8467 18.5625 25.1211 18.5625C25.3954 18.5625 25.6585 18.4539 25.8524 18.2605C26.0464 18.0671 26.1554 17.8048 26.1554 17.5312V15.4688H26.8629C27.152 15.4687 27.4379 15.5292 27.7021 15.6461C27.9664 15.763 28.2031 15.9339 28.397 16.1477C28.591 16.3614 28.7378 16.6134 28.8281 16.8872C28.9184 17.161 28.9501 17.4507 28.9212 17.7375L28.3606 23.3372C28.2882 24.0568 28.0647 24.7532 27.7048 25.3811L24.819 30.4177C24.7286 30.5756 24.5979 30.7068 24.4403 30.7981C24.2826 30.8893 24.1036 30.9374 23.9212 30.9375H10.8846C10.6927 30.9375 10.5046 30.8842 10.3413 30.7837C10.178 30.6832 10.0459 30.5393 9.95995 30.3682L7.41138 25.2842L2.21494 16.6526C2.08143 16.4295 2.03425 16.1654 2.08227 15.91C2.13028 15.6545 2.27019 15.4254 2.47569 15.2656C2.6812 15.1058 2.93817 15.0263 3.19831 15.0421C3.45846 15.0578 3.70388 15.1677 3.88847 15.3512L8.87391 20.3218C9.01845 20.4663 9.20272 20.5648 9.40341 20.6048C9.6041 20.6448 9.81218 20.6245 10.0013 20.5466C10.1905 20.4686 10.3522 20.3365 10.4659 20.1669C10.5797 19.9973 10.6405 19.7978 10.6405 19.5938V3.60938C10.6405 3.19912 10.804 2.80566 11.095 2.51557C11.3859 2.22547 11.7805 2.0625 12.192 2.0625ZM15.8122 9.21113V3.60938C15.8122 2.65211 15.4307 1.73405 14.7518 1.05716C14.0729 0.380272 13.1521 0 12.192 0C11.2319 0 10.3111 0.380272 9.6322 1.05716C8.95329 1.73405 8.57189 2.65211 8.57189 3.60938V17.1043L5.35101 13.893C4.80909 13.3557 4.08912 13.034 3.32621 12.9883C2.56331 12.9426 1.80991 13.1761 1.2074 13.645C0.604898 14.1138 0.194704 14.7857 0.0537999 15.5347C-0.0871038 16.2836 0.0509692 17.0581 0.442107 17.7128L5.59511 26.2783L8.10851 31.2902C8.36633 31.8041 8.76262 32.2363 9.25295 32.5383C9.74329 32.8403 10.3083 33.0002 10.8846 33H23.9212C24.4682 32.9998 25.0054 32.8555 25.4784 32.5817C25.9513 32.3079 26.3433 31.9143 26.6146 31.4408L29.5004 26.4062C30.0049 25.5261 30.3178 24.55 30.4189 23.5414L30.9795 17.9417C31.037 17.3682 30.9733 16.7891 30.7926 16.2417C30.6119 15.6943 30.3182 15.1907 29.9304 14.7634C29.5425 14.3361 29.0692 13.9946 28.5408 13.7608C28.0125 13.5271 27.4409 13.4063 26.8629 13.4062H25.661C25.5318 13.2317 25.3973 13.0611 25.2576 12.8947C24.8625 12.4224 24.2026 11.7232 23.4372 11.418C22.6842 11.1169 21.6871 11.1458 21.0417 11.1952L20.7686 11.22C20.5484 10.6579 20.1388 10.1898 19.6102 9.89587C19.1343 9.62221 18.6196 9.42195 18.0835 9.30188C17.4422 9.174 16.5548 9.18225 15.9114 9.207L15.8122 9.21113Z" fill="#D07B5B"/>
</svg>
