<svg width="45" height="45" viewBox="0 0 45 45" fill="none" xmlns="http://www.w3.org/2000/svg">
<g clip-path="url(#clip0_115_6)">
<path d="M30.9375 2.8125C31.6834 2.8125 32.3988 3.10882 32.9262 3.63626C33.4537 4.16371 33.75 4.87908 33.75 5.625V39.375C33.75 40.1209 33.4537 40.8363 32.9262 41.3637C32.3988 41.8912 31.6834 42.1875 30.9375 42.1875H14.0625C13.3166 42.1875 12.6012 41.8912 12.0738 41.3637C11.5463 40.8363 11.25 40.1209 11.25 39.375V5.625C11.25 4.87908 11.5463 4.16371 12.0738 3.63626C12.6012 3.10882 13.3166 2.8125 14.0625 2.8125H30.9375ZM14.0625 0C12.5707 0 11.1399 0.592632 10.085 1.64752C9.03013 2.70242 8.4375 4.13316 8.4375 5.625V39.375C8.4375 40.8668 9.03013 42.2976 10.085 43.3525C11.1399 44.4074 12.5707 45 14.0625 45H30.9375C32.4293 45 33.8601 44.4074 34.915 43.3525C35.9699 42.2976 36.5625 40.8668 36.5625 39.375V5.625C36.5625 4.13316 35.9699 2.70242 34.915 1.64752C33.8601 0.592632 32.4293 0 30.9375 0L14.0625 0Z" fill="#FDB0AE"/>
<path d="M22.5 39.375C23.2459 39.375 23.9613 39.0787 24.4887 38.5512C25.0162 38.0238 25.3125 37.3084 25.3125 36.5625C25.3125 35.8166 25.0162 35.1012 24.4887 34.5738C23.9613 34.0463 23.2459 33.75 22.5 33.75C21.7541 33.75 21.0387 34.0463 20.5113 34.5738C19.9838 35.1012 19.6875 35.8166 19.6875 36.5625C19.6875 37.3084 19.9838 38.0238 20.5113 38.5512C21.0387 39.0787 21.7541 39.375 22.5 39.375Z" fill="#FDB0AE"/>
</g>
<defs>
<clipPath id="clip0_115_6">
<rect width="45" height="45" fill="white"/>
</clipPath>
</defs>
</svg>
