<svg width="29" height="29" viewBox="0 0 29 29" fill="none" xmlns="http://www.w3.org/2000/svg">
<path d="M9.10962 27.1875C20.0535 27.1875 26.0402 18.1196 26.0402 10.2696C26.0402 10.0159 26.0402 9.7585 26.0293 9.50476C27.1949 8.66101 28.2008 7.6164 29 6.41988C27.9113 6.89992 26.7575 7.2163 25.5762 7.35875C26.8205 6.61497 27.7525 5.4447 28.1989 4.06544C27.0298 4.75804 25.7502 5.24424 24.4162 5.50276C23.5193 4.54761 22.3325 3.91486 21.0397 3.7025C19.7468 3.49015 18.4199 3.71005 17.2647 4.32814C16.1094 4.94623 15.1902 5.92802 14.6494 7.12143C14.1087 8.31483 13.9765 9.65326 14.2734 10.9294C11.9077 10.8108 9.59323 10.1962 7.48027 9.12548C5.3673 8.05479 3.50299 6.55191 2.00825 4.71432C1.24943 6.02491 1.01785 7.57517 1.36055 9.0503C1.70324 10.5254 2.59451 11.8148 3.85337 12.6567C2.91004 12.6246 1.98744 12.3713 1.16 11.9172V11.9988C1.16163 13.3717 1.63724 14.702 2.50646 15.7647C3.37567 16.8274 4.58517 17.5575 5.9305 17.8314C5.41985 17.9721 4.89235 18.0422 4.36269 18.0398C3.98928 18.0409 3.61663 18.0064 3.24981 17.9365C3.63005 19.1184 4.37043 20.1517 5.36726 20.8917C6.36409 21.6318 7.56743 22.0415 8.80875 22.0636C6.70001 23.7198 4.09516 24.6181 1.41375 24.6138C0.941269 24.6158 0.469117 24.5885 0 24.5322C2.7215 26.2672 5.8821 27.1885 9.10962 27.1875Z" fill="black"/>
</svg>
